# xmcd
#
# Track frame offsets: 
#        150
#        3247
#        15010
#        33800
#        50425
#        65272
#        82950
#        97275
#        112437
#        125655
#        139035
#        154460
#
# Disc length: 2113 seconds
#
# Revision: 1
# Processed by: cddbd v1.4PL0 Copyright (c) Steve Scherf et al.
# Submitted via: ExactAudioCopy v0.90b3
#
DISCID=98083f0c
DTITLE=Kenny Rogers - Gideon
DYEAR=1980
DGENRE=Country
TTITLE0=Goin' Home To Rock
TTITLE1=Gideon Tanner
TTITLE2=No Good Texas Rounder
TTITLE3=Don't Fall In Love With A Dreamer (With Kim Carnes)
TTITLE4=The Buckeroos
TTITLE5=You Were A Good Friend
TTITLE6=Call Me Up (The Phone Is In The Cradle)
TTITLE7=These Chains
TTITLE8=Somebody Help Me
TTITLE9=One Place In The Night
TTITLE10=Sayin' Goodbye
TTITLE11=Goin' Home To Rock (Reprise)
EXTD=Produced By: Larry Butler and Kenny Rogers\n©1980 Liberty Records\n
EXTD=Submitted by: Jason Bryan
EXTT0=
EXTT1=
EXTT2=
EXTT3=
EXTT4=
EXTT5=
EXTT6=
EXTT7=
EXTT8=
EXTT9=
EXTT10=
EXTT11=
PLAYORDER=
